# xmcd
#
# Track frame offsets: 
#        150
#        16489
#        30826
#        43411
#        55398
#        66389
#        80593
#        92688
#        101889
#
# Disc length: 1498 seconds
#
# Revision: 0
# Processed by: cddbd v1.5.2PL0 Copyright (c) Steve Scherf et al.
# Submitted via: ExactAudioCopy v0.95b4
#
DISCID=7705d809
DTITLE=The Nitty Gritty Dirt Band - The Nitty Gritty Dirt Band
DYEAR=1985
DGENRE=Country Rock
TTITLE0=Mr. Bojangles
TTITLE1=Some of Shelly's Blues
TTITLE2=The Battle of New Orleans
TTITLE3=Holding
TTITLE4=Buy for Me the Rain
TTITLE5=These Days
TTITLE6=The House at Pooh Corner
TTITLE7=Livin' Without You
TTITLE8=Melissa
EXTD=
EXTT0=
EXTT1=
EXTT2=
EXTT3=
EXTT4=
EXTT5=
EXTT6=
EXTT7=
EXTT8=
PLAYORDER=
